<svg width="289" height="215" viewBox="0 0 289 215" fill="none" xmlns="http://www.w3.org/2000/svg">
<path d="M77.1043 13.8506V15.719H3.22061C2.76617 15.719 2.39482 16.0747 2.36975 16.5228L2.3684 16.5712V90.4548H0.5V16.5712C0.5 15.0937 1.67779 13.8913 3.14572 13.8516L3.22061 13.8506H77.1043Z" fill="#8DEE72"/>
<path d="M211.896 194.177V192.308H285.779C286.234 192.308 286.605 191.953 286.63 191.505L286.632 191.456V117.572H288.5V191.456C288.5 192.934 287.322 194.136 285.854 194.176L285.779 194.177H211.896Z" fill="#8DEE72"/>
<path d="M92.7344 137.036H257.1V136.236H92.7344V137.036Z" fill="#00000F"/>
<path d="M196.297 214.655H197.097V0.910156H196.297V214.655Z" fill="#00000F"/>
<path fill-rule="evenodd" clip-rule="evenodd" d="M189.609 136.342L196.404 143.136L203.198 136.342L196.404 129.547L189.609 136.342Z" fill="#8DEE72"/>
<path fill-rule="evenodd" clip-rule="evenodd" d="M178.285 136.342L196.404 154.461L214.523 136.342L196.404 118.223L178.285 136.342Z" fill="#8DEE72" fill-opacity="0.01" stroke="#8DEE72" stroke-width="2"/>
<path fill-rule="evenodd" clip-rule="evenodd" d="M166.584 136.342L196.404 166.162L226.225 136.342L196.404 106.521L166.584 136.342ZM225.47 136.342L196.404 165.407L167.339 136.342L196.404 107.276L225.47 136.342Z" fill="#8DEE72"/>
<path d="M225.425 66.8686H224.625V17.543H225.425V66.8686Z" fill="#00000F"/>
<path fill-rule="evenodd" clip-rule="evenodd" d="M225.319 19.7852L222.116 15.5145H228.521L225.319 19.7852Z" fill="#8DEE72"/>
<path fill-rule="evenodd" clip-rule="evenodd" d="M225.319 64.627L222.116 68.8976H228.521L225.319 64.627Z" fill="#8DEE72"/>
<path d="M276.672 42.2328V43.0328H240.158V42.2328H276.672Z" fill="#00000F"/>
<path fill-rule="evenodd" clip-rule="evenodd" d="M272.295 42.2059L276.566 45.4089V39.0029L272.295 42.2059Z" fill="#8DEE72"/>
<path d="M61.1421 180.523V181.323H11.8164V180.523H61.1421Z" fill="#00000F"/>
<path fill-rule="evenodd" clip-rule="evenodd" d="M14.0586 180.63L9.78797 183.833V177.427L14.0586 180.63Z" fill="#8DEE72"/>
<path fill-rule="evenodd" clip-rule="evenodd" d="M58.8984 180.63L63.1691 183.833V177.427L58.8984 180.63Z" fill="#8DEE72"/>
<path d="M22.7066 192.747H21.9066V165.842H22.7066V192.747Z" fill="#00000F"/>
<path fill-rule="evenodd" clip-rule="evenodd" d="M22.5998 168.084L19.3968 163.813H25.8027L22.5998 168.084Z" fill="#8DEE72"/>
<path fill-rule="evenodd" clip-rule="evenodd" d="M22.5998 189.971L19.3968 194.241H25.8027L22.5998 189.971Z" fill="#8DEE72"/>
</svg>
