<svg width="72" height="72" viewBox="0 0 72 72" fill="none" xmlns="http://www.w3.org/2000/svg">
<path d="M38.4 4V68H37V4H38.4Z" fill="#00000F"/>
<path d="M69 37V38.4H3V37H69Z" fill="#00000F"/>
<path fill-rule="evenodd" clip-rule="evenodd" d="M38.0293 34.2109L41.9546 38.1362L38.0293 42.0615L34.104 38.1362L38.0293 34.2109Z" fill="#8DEE72"/>
<path fill-rule="evenodd" clip-rule="evenodd" d="M39.0039 26.4453L50.5617 38.0031L39.0039 49.561L27.4461 38.0031L39.0039 26.4453ZM39.0039 47.3803L48.381 38.0031L39.0039 28.626L29.6268 38.0031L39.0039 47.3803Z" fill="#8DEE72"/>
<path fill-rule="evenodd" clip-rule="evenodd" d="M38.0996 19L56.1996 37.1L38.0996 55.2L19.9996 37.1L38.0996 19ZM38.0996 53.0193L54.0189 37.1L38.0996 21.1807L22.1803 37.1L38.0996 53.0193Z" fill="#8DEE72"/>
<path d="M27.1652 11.251V12.9242L9.31773 12.924V30.7717H7.64453V12.5142C7.64453 11.829 8.19007 11.2712 8.8705 11.2515L8.90774 11.251H27.1652Z" fill="#8DEE72"/>
<path d="M45.0125 60.8887V59.2155L62.86 59.2156V41.368H64.5332V59.6255C64.5332 60.3107 63.9877 60.8684 63.3072 60.8881L63.27 60.8887H45.0125Z" fill="#8DEE72"/>
<path fill-rule="evenodd" clip-rule="evenodd" d="M37.5 5L31 0L44 0L37.5 5Z" fill="#8DEE72"/>
<path fill-rule="evenodd" clip-rule="evenodd" d="M37.5 67L31 72H44L37.5 67Z" fill="#8DEE72"/>
<path fill-rule="evenodd" clip-rule="evenodd" d="M68 37.5L72 34V41L68 37.5Z" fill="#8DEE72"/>
<path fill-rule="evenodd" clip-rule="evenodd" d="M4 37.5L0 34L0 41L4 37.5Z" fill="#8DEE72"/>
</svg>
