<svg width="20" height="20" viewBox="0 0 20 20" fill="none" xmlns="http://www.w3.org/2000/svg">
<circle cx="9.74286" cy="4.74286" r="0.742857" fill="#00000F"/>
<path d="M9.74286 7.34286C9.33258 7.34286 9 7.67544 9 8.08572V14.6972C9 15.1074 9.33258 15.44 9.74286 15.44C10.1531 15.44 10.4857 15.1074 10.4857 14.6972V8.08572C10.4857 7.67544 10.1531 7.34286 9.74286 7.34286Z" fill="#00000F"/>
<path fill-rule="evenodd" clip-rule="evenodd" d="M0 10C0 4.47715 4.47715 0 10 0C15.5228 0 20 4.47715 20 10C20 15.5228 15.5228 20 10 20C4.47715 20 0 15.5228 0 10ZM19.2593 10C19.2593 4.88625 15.1137 0.740741 10 0.740741C4.88625 0.740741 0.740741 4.88625 0.740741 10C0.740741 15.1137 4.88625 19.2593 10 19.2593C15.1137 19.2593 19.2593 15.1137 19.2593 10Z" fill="#49B0D5"/>
</svg>
