<svg width="24" height="25" viewBox="0 0 24 25" fill="none" xmlns="http://www.w3.org/2000/svg">
<path fill-rule="evenodd" clip-rule="evenodd" d="M12 0C15.187 0 18.1878 1.02905 20.4497 2.89765C22.7391 4.789 24 7.31135 24 10C24 11.6852 23.4784 13.2273 22.4055 14.7144C21.5517 15.8979 20.327 17.0734 18.5513 18.414L11.0537 24.1472C10.9648 24.2151 10.8577 24.25 10.75 24.25C10.6745 24.25 10.5987 24.233 10.5285 24.1982C10.358 24.114 10.25 23.9403 10.25 23.75V19.7071C7.47195 19.4136 4.9447 18.352 3.092 16.6924C1.0981 14.9062 0 12.5296 0 10C0 7.31135 1.26085 4.789 3.5503 2.89765C5.81215 1.02905 8.813 0 12 0ZM11.25 22.7383L17.9464 17.6178C20.5723 15.6352 23 13.3416 23 10C23 5.0374 18.0655 1 12 1C5.93455 1 1 5.0374 1 10C1 12.2415 1.97995 14.3537 3.75925 15.9476C5.55075 17.5524 8.04655 18.5481 10.787 18.7514C11.0481 18.7708 11.25 18.9882 11.25 19.25V22.7383Z" fill="#00000F"/>
<path d="M14.8604 7.83276C14.8585 7.45876 14.6627 7.25046 14.3492 7.25406C14.0386 7.25826 13.8516 7.47166 13.8497 7.84471C13.8443 8.53496 13.8482 9.22461 13.8467 9.91426C13.8467 10.0139 13.8374 10.1123 13.8291 10.3003C13.711 10.1623 13.6441 10.0913 13.5845 10.0144C12.9448 9.18401 12.3071 8.35201 11.668 7.52046C11.5117 7.31711 11.314 7.19446 11.0547 7.27581C10.7964 7.35656 10.6831 7.56751 10.6826 7.82221C10.6777 9.15501 10.6777 10.487 10.6826 11.8193C10.6831 12.0378 10.7715 12.2253 10.9844 12.3259C11.3604 12.5029 11.7163 12.2361 11.7207 11.7587C11.7295 11.1074 11.7237 10.455 11.7237 9.80265C11.7237 9.67685 11.7237 9.55086 11.7237 9.42471C11.8492 9.48181 11.9102 9.54851 11.9659 9.61981C12.6036 10.4405 13.2398 11.2618 13.876 12.0847C14.0338 12.2911 14.2144 12.4421 14.4976 12.3458C14.775 12.2517 14.8629 12.0437 14.8629 11.7739C14.8614 10.4597 14.8653 9.14641 14.8604 7.83276V7.83276Z" fill="#00000F"/>
<path d="M16.8165 8.29775C16.9127 8.29035 17.0225 8.2753 17.1343 8.275C17.5113 8.27175 17.8902 8.2792 18.2667 8.2701C18.4044 8.2662 18.5552 8.25645 18.6768 8.1993C18.9151 8.08815 18.9859 7.8658 18.9219 7.62555C18.8594 7.3804 18.6768 7.253 18.4185 7.2522C17.7481 7.25055 17.0777 7.2491 16.4073 7.25055C15.9268 7.2518 15.7344 7.43775 15.7334 7.91625C15.7285 9.18245 15.7285 10.4487 15.7334 11.7144C15.7344 12.1854 15.94 12.3856 16.4092 12.3875C17.0342 12.3904 17.6568 12.3895 18.2798 12.387C18.3823 12.386 18.4868 12.3719 18.5855 12.343C18.8086 12.2776 18.9297 12.1253 18.937 11.8878C18.9453 11.6387 18.8321 11.467 18.5982 11.3955C18.4727 11.3572 18.3374 11.3477 18.208 11.3467C17.7402 11.3406 17.271 11.3439 16.7949 11.3439C16.7949 10.9904 16.7949 10.6837 16.7949 10.3618C16.8843 10.3535 16.9566 10.3416 17.0294 10.3409C17.4732 10.3384 17.9185 10.3508 18.3619 10.335C18.7481 10.3206 18.9507 10.109 18.9361 9.78155C18.9234 9.48725 18.7075 9.3056 18.354 9.29895C18.108 9.29455 17.8628 9.29815 17.6153 9.29795C16.6983 9.29795 16.6983 9.29795 16.7842 8.3785C16.7857 8.36025 16.7979 8.34335 16.8165 8.29775V8.29775Z" fill="#00000F"/>
<path d="M7.69141 11.3494C7.58836 11.3374 7.48436 11.344 7.38086 11.344C6.94776 11.3433 6.51661 11.344 6.04296 11.344C6.04296 11.1841 6.04296 11.0713 6.04296 10.9595C6.04296 9.94926 6.04491 8.93831 6.04151 7.92796C6.04006 7.49686 5.84911 7.25666 5.52246 7.25411C5.18406 7.25096 5.00096 7.48066 5.00096 7.91776C5.00001 9.20216 4.99901 10.4859 5.00196 11.7707C5.00396 12.1789 5.20216 12.3787 5.61136 12.3869C5.97856 12.3934 7.35746 12.3992 7.67826 12.3826C7.99121 12.365 8.20901 12.1336 8.20461 11.8594C8.19971 11.5962 7.99121 11.385 7.69141 11.3494V11.3494Z" fill="#00000F"/>
<path d="M9.80458 7.76345C9.80163 7.3742 9.67763 7.25095 9.30213 7.25045C8.91978 7.24945 8.79043 7.36715 8.78943 7.75385C8.78503 9.12395 8.78503 10.4936 8.78943 11.8642C8.79043 12.2488 8.93008 12.3868 9.29188 12.3874C9.66393 12.3894 9.80263 12.2458 9.80458 11.8447C9.80658 11.174 9.80558 10.5037 9.80558 9.8325C9.80558 9.14275 9.80658 8.4536 9.80458 7.76345V7.76345Z" fill="#00000F"/>
</svg>
