<svg width="24" height="24" viewBox="0 0 24 24" fill="none" xmlns="http://www.w3.org/2000/svg">
<path fill-rule="evenodd" clip-rule="evenodd" d="M0 12C0 5.38317 5.38317 0 12 0C18.6168 0 24 5.38317 24 12C24 18.6168 18.6168 24 12 24C5.38317 24 0 18.6168 0 12ZM1 12C1 18.0654 5.93455 23 12 23C18.0655 23 23 18.0654 23 12C23 5.93463 18.0655 1 12 1C5.93455 1 1 5.93463 1 12Z" fill="#00000F"/>
<path d="M14.7793 5.48811H13.152C11.8202 5.48811 10.7366 6.57167 10.7366 7.90351V9.7341H9.22065C8.84149 9.7341 8.53418 10.0414 8.53418 10.4206C8.53418 10.7997 8.84149 11.107 9.22065 11.107H10.7366V17.4632C10.7366 17.8424 11.0439 18.1497 11.4231 18.1497C11.8022 18.1497 12.1096 17.8424 12.1096 17.4632V11.107H14.455C14.8342 11.107 15.1415 10.7997 15.1415 10.4206C15.1415 10.0414 14.8342 9.7341 14.455 9.7341H12.1096V7.90351C12.1096 7.3287 12.5772 6.86106 13.152 6.86106H14.7792C15.1583 6.86106 15.4656 6.55375 15.4656 6.17459C15.4656 5.79542 15.1583 5.48811 14.7793 5.48811Z" fill="#00000F"/>
</svg>
