<svg width="16" height="16" viewBox="0 0 16 16" fill="none" xmlns="http://www.w3.org/2000/svg">
<path fill-rule="evenodd" clip-rule="evenodd" d="M12.2282 11.5702L15.8637 15.2057C16.0454 15.3874 16.0454 15.6819 15.8637 15.8637C15.7728 15.9546 15.6537 16 15.5347 16C15.4156 16 15.2966 15.9546 15.2057 15.8637L11.5702 12.2282C10.2979 13.344 8.6879 13.9597 6.97984 13.9597C5.11537 13.9597 3.36268 13.2335 2.04442 11.9153C0.726157 10.597 0 8.84431 0 6.97984C0 5.11537 0.726157 3.36268 2.04442 2.04442C3.36268 0.726157 5.11537 0 6.97984 0C8.84431 0 10.597 0.726157 11.9153 2.04442C13.2335 3.36268 13.9597 5.11537 13.9597 6.97984C13.9597 8.6879 13.344 10.2979 12.2282 11.5702ZM0.930645 6.97984C0.930645 8.59551 1.56001 10.1146 2.70241 11.2573C3.84504 12.3997 5.36416 13.029 6.97984 13.029C8.59551 13.029 10.1146 12.3997 11.2573 11.2573C12.3997 10.1146 13.029 8.59551 13.029 6.97984C13.029 5.36416 12.3997 3.84504 11.2573 2.70241C10.1146 1.56001 8.59551 0.930645 6.97984 0.930645C5.36416 0.930645 3.84504 1.56001 2.70241 2.70241C1.56001 3.84504 0.930645 5.36416 0.930645 6.97984Z" fill="#00000F"/>
<rect width="16" height="16" fill="#D8D8D8" fill-opacity="0.01"/>
</svg>
