<svg width="24" height="24" viewBox="0 0 24 24" fill="none" xmlns="http://www.w3.org/2000/svg">
<path fill-rule="evenodd" clip-rule="evenodd" d="M12 0C18.6272 0 24 5.37281 24 12C24 18.6272 18.6272 24 12 24C5.37281 24 0 18.6272 0 12C0 5.37281 5.37281 0 12 0ZM17.0283 9.40359C17.0292 9.41906 17.1239 10.9486 16.4423 12.653C15.5316 14.9302 13.7362 16.4011 11.1117 17.0231C11.0836 17.0288 8.65547 17.5317 6.52406 16.5178C7.43531 16.4798 8.69719 16.223 9.585 15.2264C9.65906 15.1434 9.67687 15.015 9.63141 14.9133C9.45234 14.5167 8.12672 14.9606 7.39547 13.4864C7.65516 13.4977 8.39062 13.493 8.34469 13.0861C8.29078 12.6103 6.61078 12.8222 6.33516 10.8788C6.5775 10.98 7.25297 11.1759 7.36125 10.8052C7.48875 10.3678 5.69672 9.48656 6.45 7.59609C7.21078 8.38828 9.38063 10.3617 12.0113 10.2108C12.1875 10.2005 12.3117 10.0317 12.2686 9.86016C11.8912 8.35594 12.9923 6.82688 14.5823 6.82688C15.2264 6.82688 15.8306 7.08422 16.2834 7.55109C16.5014 7.77609 17.4605 7.44703 17.7014 7.35703C17.5566 7.52672 17.3105 7.79859 17.0273 8.02078C16.9294 8.09766 16.8933 8.22984 16.9387 8.34563C17.0592 8.65406 17.7361 8.45625 17.9775 8.4075C17.7778 8.61984 17.1047 9.14391 17.0283 9.40359V9.40359ZM12 1C5.92498 1 1 5.92498 1 12C1 18.075 5.92498 23 12 23C18.075 23 23 18.075 23 12C23 5.92498 18.075 1 12 1Z" fill="black"/>
</svg>
